:SAMPLES-PER-SECOND 30
:FULLY-SPECIFIED
:DEGREES
858
root  32.5638 38.8503 16.2 43.543 83.843 49.7028
RightUpLeg  -14.2559 3.29741 -10.3019
RightLeg  53.7986 1.43148 1.73818
RightFoot  -1.36516 -0.692505 7.81892
RightToes  2.96859e-009 0 -3.6325e-017
Spine  8.59119 -0.865958 -5.47225
Spine1  8.61026 -1.37265 -2.97591
HEad  -10.3846 -2.51519 -0.156297
LeftShoulder1  0.321705 2.60366 -29.567
LeftArm  -2.69203 10.8285 -39.6204
LeftForeArm  21.6965 -15.1165 -5.97075
LeftHand  -0.0251453 3.44759 0.407308
RightShoulder  -0.54934 -5.10872 27.4406
RightArm  21.8182 -3.89027 49.5702
RightForeArm  -4.8174 18.4846 5.80641
RightHand  -0.642758 2.88467 -9.22968
LeftUpLeg  -2.60545 6.54306 -4.96911
LeftLeg  15.4676 2.65068 -1.47155
LeftFoot  -6.43957 -0.182873 5.16847
LeftToes  3.24686e-010 -7.02549e-012 1.39809e-011
859
root  33.3152 38.9393 16.0132 40.1486 84.0094 46.1716
RightUpLeg  -15.7451 2.01786 -8.90752
RightLeg  47.642 0.214042 -0.0600292
RightFoot  -2.48677 -0.580227 7.25772
RightToes  2.96859e-009 0 -3.6325e-017
Spine  9.02356 -1.24672 -5.9867
Spine1  7.97511 -2.03374 -1.51243
HEad  -9.88753 -2.42249 -0.254211
LeftShoulder1  0.2528 2.79874 -29.7402
LeftArm  -1.64857 10.0546 -39.2216
LeftForeArm  20.1004 -16.2396 -5.68959
LeftHand  -0.0381479 3.39293 1.17436
RightShoulder  -0.516889 -5.03162 27.0226
RightArm  23.4957 -3.34136 49.6347
RightForeArm  -5.82742 19.8628 5.55923
RightHand  -0.620004 2.96384 -8.83172
LeftUpLeg  -0.860116 6.71164 -4.82631
LeftLeg  14.27 2.60147 -1.51404
LeftFoot  -7.23652 -0.140486 5.13896
LeftToes  3.24686e-010 -7.02549e-012 1.39809e-011
860
root  34.066 39.0044 15.8515 35.7257 84.0623 41.3623
RightUpLeg  -16.7439 0.221285 -7.2286
RightLeg  39.7267 -0.949077 -1.11666
RightFoot  -3.0125 -0.485798 6.40971
RightToes  2.96859e-009 0 -3.6325e-017
Spine  8.78751 -1.49348 -5.89921
Spine1  8.06854 -2.32652 -0.618072
HEad  -9.84165 -3.52398 0.575768
LeftShoulder1  0.23876 2.84271 -29.9882
LeftArm  -0.151082 8.97411 -38.7135
LeftForeArm  18.2984 -17.5567 -5.36685
LeftHand  -0.0514156 3.16096 1.87265
RightShoulder  -0.519825 -5.05716 26.6537
RightArm  23.7637 -3.08181 49.8048
RightForeArm  -5.47175 21.1923 5.28555
RightHand  -0.6069 2.91821 -8.69288
LeftUpLeg  0.546602 6.88337 -4.65314
LeftLeg  13.1733 2.63358 -1.50607
LeftFoot  -7.98358 -0.106794 5.27452
LeftToes  3.24686e-010 -7.02549e-012 1.39809e-011
861
root  34.8218 39.002 15.7106 34.2121 83.6153 39.3852
RightUpLeg  -17.146 -2.70936 -5.80461
RightLeg  30.6574 -1.4227 -1.14617
RightFoot  -3.77897 -0.533368 7.65775
RightToes  2.96859e-009 0 -3.6325e-017
Spine  8.62243 -1.61641 -5.99775
Spine1  7.79992 -2.41191 -0.148169
HEad  -10.322 -3.91796 0.761436
LeftShoulder1  0.302768 2.66367 -29.9599
LeftArm  1.16431 8.82766 -38.4388
LeftForeArm  16.8705 -19.7755 -4.67038
LeftHand  -0.0550924 3.16076 2.05284
RightShoulder  -0.486166 -4.96433 26.4459
RightArm  23.1177 -3.29357 49.9687
RightForeArm  -5.1333 22.0393 5.18929
RightHand  -0.641121 2.95933 -9.12583
LeftUpLeg  1.69434 6.71364 -5.13277
LeftLeg  12.3892 3.27705 -1.3109
LeftFoot  -8.87776 -0.0582836 5.19893
LeftToes  3.24686e-010 -7.02549e-012 1.39809e-011
862
root  35.6342 38.9778 15.5829 34.6046 83.0713 39.4641
RightUpLeg  -16.8897 -7.54857 -3.94803
RightLeg  21.1978 -0.00625063 -0.415869
RightFoot  -3.66498 -0.552365 7.8542
RightToes  2.96859e-009 0 -3.6325e-017
Spine  8.03403 -1.74385 -6.05248
Spine1  8.1018 -2.43451 0.0033067
HEad  -10.078 -4.27184 0.905769
LeftShoulder1  0.403947 2.37051 -29.5169
LeftArm  1.38774 8.6239 -38.4757
LeftForeArm  16.4719 -21.163 -4.29884
LeftHand  -0.0737375 2.32204 2.36396
RightShoulder  -0.503142 -5.00586 26.6695
RightArm  22.3651 -3.32937 49.9791
RightForeArm  -4.31557 22.2908 5.14103
RightHand  -0.611435 2.98164 -8.69546
LeftUpLeg  3.20446 6.4488 -5.87538
LeftLeg  11.3227 4.07801 -1.11951
LeftFoot  -9.70085 -0.0158933 5.17772
LeftToes  3.24686e-010 -7.02549e-012 1.39809e-011
863
root  36.4731 38.913 15.469 35.8839 82.2204 40.6512
RightUpLeg  -16.1256 -13.1069 -2.35452
RightLeg  12.2164 1.01765 0.962273
RightFoot  -2.75661 -0.6271 8.06663
RightToes  2.96859e-009 0 -3.6325e-017
Spine  7.92727 -1.76775 -6.20257
Spine1  7.80178 -2.38349 0.0663694
HEad  -9.41338 -4.67174 0.79869
LeftShoulder1  0.38696 2.41329 -29.3752
LeftArm  1.71252 8.14081 -38.1852
LeftForeArm  16.1663 -21.7991 -4.22484
LeftHand  -0.0831423 1.81848 2.42084
RightShoulder  -0.550291 -5.12926 27.0729
RightArm  23.449 -3.38271 49.5961
RightForeArm  -5.89747 21.9676 5.22942
RightHand  -0.68992 3.85776 -8.90591
LeftUpLeg  4.92372 6.17318 -6.88407
LeftLeg  10.3715 5.08811 -1.03611
LeftFoot  -10.6958 0.0361218 4.99687
LeftToes  3.24686e-010 -7.02549e-012 1.39809e-011
864
root  37.3828 38.8115 15.3681 36.1851 81.6835 41.1536
RightUpLeg  -13.6575 -11.4933 -2.90652
RightLeg  3.1502 -9.40089 3.6399
RightFoot  -0.81019 -0.823206 8.86423
RightToes  2.96859e-009 0 -3.6325e-017
Spine  7.56104 -1.87549 -5.61652
Spine1  8.14644 -2.33228 -0.271628
HEad  -9.23607 -5.11376 0.588271
LeftShoulder1  0.411296 2.3377 -29.1605
LeftArm  1.33364 8.01293 -38.3197
LeftForeArm  16.3144 -22.583 -4.13201
LeftHand  -0.0516149 2.12489 1.47632
RightShoulder  -0.568659 -5.1751 27.2492
RightArm  23.2818 -3.64753 49.4275
RightForeArm  -4.80916 21.4364 5.22798
RightHand  -0.626497 3.13895 -8.75779
LeftUpLeg  6.87026 6.07757 -7.60393
LeftLeg  9.87673 5.87047 -0.914396
LeftFoot  -11.9079 0.0959898 4.87198
LeftToes  3.24686e-010 -7.02549e-012 1.39809e-011
865
root  38.3469 38.6176 15.2977 36.87 80.807 42.1162
RightUpLeg  -11.436 -8.89508 -3.6445
RightLeg  -3.55671 -21.4504 7.05214
RightFoot  1.35061 -1.0042 8.9754
RightToes  2.96859e-009 0 -3.6325e-017
Spine  7.25285 -1.83286 -6.01701
Spine1  8.11859 -2.42454 0.352869
HEad  -8.91083 -5.28481 0.238769
LeftShoulder1  0.36654 2.47452 -29.4895
LeftArm  1.93776 7.72883 -38.2021
LeftForeArm  15.4941 -22.4435 -4.19334
LeftHand  -0.0483828 2.89523 1.56607
RightShoulder  -0.513901 -5.03086 26.8325
RightArm  24.2815 -3.66738 49.5399
RightForeArm  -5.42346 19.7146 5.61811
RightHand  -0.610867 2.4741 -9.20797
LeftUpLeg  8.73871 5.97355 -8.61761
LeftLeg  9.90968 6.70781 -0.808521
LeftFoot  -13.4142 0.167513 4.8216
LeftToes  3.24686e-010 -7.02549e-012 1.39809e-011
866
root  39.4001 38.4253 15.2577 35.9338 80.1235 41.437
RightUpLeg  -10.4948 -8.90512 -3.04136
RightLeg  -5.49888 -27.6523 8.4733
RightFoot  3.42693 -0.64548 5.60687
RightToes  2.96859e-009 0 -3.6325e-017
Spine  6.02857 -1.81077 -5.62162
Spine1  9.10596 -2.40747 0.571017
HEad  -8.05742 -5.7922 -0.0318357
LeftShoulder1  0.357366 2.49673 -29.3929
LeftArm  1.68854 7.74029 -38.8523
LeftForeArm  15.8326 -21.6126 -4.25971
LeftHand  -0.0486913 2.65859 1.5058
RightShoulder  -0.586143 -5.23053 27.2016
RightArm  23.8283 -3.3091 48.9424
RightForeArm  -4.41069 17.6503 6.25417
RightHand  -0.630098 2.53461 -9.42637
LeftUpLeg  10.6541 5.87462 -9.28566
LeftLeg  10.108 7.52499 -0.630627
LeftFoot  -15.0077 0.237312 4.57858
LeftToes  3.24686e-010 -7.02549e-012 1.39809e-011
867
root  40.4312 38.4402 15.161 28.5321 79.8911 34.14
RightUpLeg  -10.3577 -8.34072 -1.3152
RightLeg  -4.31792 -26.9507 7.58078
RightFoot  7.07551 1.32526 -7.95631
RightToes  2.96859e-009 0 -3.6325e-017
Spine  5.76294 -1.89879 -3.19333
Spine1  9.29827 -2.60137 1.18655
HEad  -7.84974 -5.76824 -0.486485
LeftShoulder1  0.262955 2.77699 -30.0495
LeftArm  2.28656 8.42846 -38.8523
LeftForeArm  15.9934 -20.8374 -4.43261
LeftHand  -0.0557441 2.09745 1.60227
RightShoulder  -0.569369 -5.18085 27.1896
RightArm  22.0115 -3.73971 48.2383
RightForeArm  -1.89522 15.6164 6.83209
RightHand  -0.607084 2.69117 -8.92052
LeftUpLeg  13.4498 5.73262 -8.72497
LeftLeg  8.16716 8.40969 -0.849161
LeftFoot  -15.5428 0.248138 4.23081
LeftToes  3.24686e-010 -7.02549e-012 1.39809e-011
